<svg id="Layer_1" data-name="Layer 1" xmlns="http://www.w3.org/2000/svg" viewBox="0 0 32 17.04"><defs><style>.cls-1{fill:#17985b;}</style></defs><title>Meja Belajar</title><path class="cls-1" d="M2.86,24.52H2.17a.5.5,0,0,1-.49-.44l-.12-1.47H3.47l-.13,1.47A.48.48,0,0,1,2.86,24.52Z" transform="translate(0 -7.48)"/><path class="cls-1" d="M29.94,24.52h-.68a.49.49,0,0,1-.49-.44l-.12-1.47h1.91l-.13,1.47A.48.48,0,0,1,29.94,24.52Z" transform="translate(0 -7.48)"/><rect class="cls-1" width="32" height="1.5" rx="0.62" ry="0.62"/><rect class="cls-1" x="1.56" y="11.35" width="1.91" height="3.78"/><rect class="cls-1" x="28.65" y="2.36" width="1.91" height="12.77"/><path class="cls-1" d="M12.08,10.37V18.3a.53.53,0,0,1-.53.53H5a.53.53,0,0,0-.53.53v2.25a.53.53,0,0,0,.53.53H27.11a.53.53,0,0,0,.53-.53V10.37a.53.53,0,0,0-.53-.53H12.61A.53.53,0,0,0,12.08,10.37Z" transform="translate(0 -7.48)"/><path class="cls-1" d="M10.67,9.75H1.33a.62.62,0,0,0-.62.62v2.54a.62.62,0,0,0,.62.62h9.34a.62.62,0,0,0,.62-.62V10.37A.62.62,0,0,0,10.67,9.75ZM7.3,11.68a.25.25,0,0,1-.25.25H5a.25.25,0,0,1-.25-.25V11.6A.25.25,0,0,1,5,11.35h2.1a.25.25,0,0,1,.25.25Z" transform="translate(0 -7.48)"/><path class="cls-1" d="M10.67,14.29H1.33a.62.62,0,0,0-.62.62v2.54a.62.62,0,0,0,.62.62h9.34a.62.62,0,0,0,.62-.62V14.91A.62.62,0,0,0,10.67,14.29ZM7.3,16.22a.25.25,0,0,1-.25.25H5a.25.25,0,0,1-.25-.25v-.08A.25.25,0,0,1,5,15.89h2.1a.25.25,0,0,1,.25.25Z" transform="translate(0 -7.48)"/></svg>