<svg id="Layer_1" data-name="Layer 1" xmlns="http://www.w3.org/2000/svg" viewBox="0 0 32 20.44"><defs><style>.cls-1{fill:#17985b;}</style></defs><title>Ruang Jemur Pakaian</title><path class="cls-1" d="M15.66,11.5c-4.41,0-7-1.38-8.42-2.53A6.89,6.89,0,0,1,5.17,6.34a.52.52,0,0,1,1-.36A6.08,6.08,0,0,0,8,8.21a12.19,12.19,0,0,0,7.7,2.25c7.79,0,9.5-4.43,9.52-4.48a.52.52,0,0,1,1,.36A6.89,6.89,0,0,1,24.09,9C22.68,10.12,20.07,11.5,15.66,11.5Z" transform="translate(0 -5.64)"/><path class="cls-1" d="M22.59,12.14A2.13,2.13,0,0,1,21.8,12a2.23,2.23,0,0,1-1.25-1.16,2.25,2.25,0,0,1,1.12-3A2.24,2.24,0,0,1,24.62,9h0a2.25,2.25,0,0,1,.05,1.71,2.19,2.19,0,0,1-1.17,1.24A2.23,2.23,0,0,1,22.59,12.14Zm0-3.62a1.46,1.46,0,0,0-.57.12,1.4,1.4,0,0,0-.73.78,1.35,1.35,0,0,0,0,1.06,1.4,1.4,0,0,0,2.57-.08,1.35,1.35,0,0,0,0-1.06h0a1.38,1.38,0,0,0-.77-.73A1.43,1.43,0,0,0,22.58,8.52Z" transform="translate(0 -5.64)"/><path class="cls-1" d="M30.84,15.32l1.14-3a.28.28,0,0,0-.16-.36L26.74,10a.31.31,0,0,0-.21,0L19.72,13.1a.28.28,0,0,0-.15.15l-1.92,5.08a.29.29,0,0,0,.16.36l3,1.14a.28.28,0,0,0,.36-.16L21.82,18l1.94,4.3a.28.28,0,0,0,.37.14l6.51-2.94a.28.28,0,0,0,.14-.37l-1.94-4.3,1.64.62A.29.29,0,0,0,30.84,15.32Z" transform="translate(0 -5.64)"/><path class="cls-1" d="M10.55,13A2.76,2.76,0,0,1,9.17,9.31h0a2.77,2.77,0,0,1,3.66-1.39,2.77,2.77,0,0,1-1.14,5.3A2.7,2.7,0,0,1,10.55,13Zm.53-4.14a1.71,1.71,0,0,0-1,.91h0a1.72,1.72,0,0,0,3.14,1.42,1.73,1.73,0,0,0,.05-1.32,1.72,1.72,0,0,0-1.62-1.12A1.87,1.87,0,0,0,11.08,8.83Z" transform="translate(0 -5.64)"/><path class="cls-1" d="M1.44,17.16,0,13.41A.36.36,0,0,1,.22,13l6.31-2.38a.3.3,0,0,1,.26,0l8.46,3.82a.32.32,0,0,1,.19.19l2.38,6.3a.36.36,0,0,1-.21.45l-3.75,1.42a.35.35,0,0,1-.45-.2l-.77-2-2.41,5.33a.34.34,0,0,1-.46.18L1.68,22.39a.35.35,0,0,1-.17-.46L3.92,16.6l-2,.77A.36.36,0,0,1,1.44,17.16Z" transform="translate(0 -5.64)"/></svg>