<svg id="Layer_1" data-name="Layer 1" xmlns="http://www.w3.org/2000/svg" viewBox="0 0 32 24.28"><defs><style>.cls-1{fill:#17985b;}</style></defs><title>Kamar Mandi Dalam</title><path class="cls-1" d="M8.25,28.14H7.18a.76.76,0,0,1-.76-.69l-.2-2.29h3L9,27.45A.75.75,0,0,1,8.25,28.14Z" transform="translate(0 -3.86)"/><path class="cls-1" d="M24.82,28.14H23.75a.75.75,0,0,1-.75-.69l-.2-2.29h3l-.2,2.29A.76.76,0,0,1,24.82,28.14Z" transform="translate(0 -3.86)"/><rect class="cls-1" y="8.6" width="32" height="1.62" rx="0.81" ry="0.81"/><path class="cls-1" d="M3.18,11H28.82a1,1,0,0,1,1,1v4.6a4,4,0,0,1-4,4H6.19a4,4,0,0,1-4-4V12A1,1,0,0,1,3.18,11Z"/><path class="cls-1" d="M8.25,11.52H7V5.85A2.13,2.13,0,0,1,7.49,4.4a1.81,1.81,0,0,1,1.37-.54,1.78,1.78,0,0,1,1.36.54,2.08,2.08,0,0,1,.49,1.45v1.2H9.45V5.79a.88.88,0,0,0-.16-.53s-.13-.14-.43-.14a.6.6,0,0,0-.45.14.86.86,0,0,0-.16.54v5.72Z" transform="translate(0 -3.86)"/></svg>