<svg id="Layer_1" data-name="Layer 1" xmlns="http://www.w3.org/2000/svg" viewBox="0 0 32 32"><defs><style>.cls-1{fill:#17985b;}.cls-2{fill:#fff;}</style></defs><title>Tempat Parkir</title><rect class="cls-1" width="32" height="32" rx="2.51" ry="2.51"/><path class="cls-2" d="M10.92,7.6a27.18,27.18,0,0,1,4.66-.32A7.34,7.34,0,0,1,20.24,8.5,4.47,4.47,0,0,1,21.87,12a4.9,4.9,0,0,1-1.4,3.62,7.08,7.08,0,0,1-5,1.61,9.42,9.42,0,0,1-1.17-.07v5.45H10.92Zm3.42,6.92a5.07,5.07,0,0,0,1.15.09c1.83,0,3-.93,3-2.49,0-1.4-1-2.24-2.69-2.24a5.67,5.67,0,0,0-1.42.14Z"/></svg>